<?xml version="1.0" encoding="utf-8"?>
<!-- Generator: Adobe Illustrator 22.0.1, SVG Export Plug-In . SVG Version: 6.00 Build 0)  -->
<svg version="1.1" id="Layer_1" xmlns="http://www.w3.org/2000/svg" xmlns:xlink="http://www.w3.org/1999/xlink" x="0px" y="0px"
	 viewBox="0 0 612 514.5" style="enable-background:new 0 0 612 514.5;" xml:space="preserve">
<g id="XgZqEz_1_">
	<g>
		<path d="M604.9,155.1c-0.7,3-1.2,6-2,8.9c-5.2,19.1-18.5,29.5-37.1,33.5c-18.1,3.9-36.7,4.7-55.1,4.2c-24.1-0.7-48.1-2.2-72.1-3.4
			c-2.8-0.1-5.5-0.7-8.5-1.1c0-11.3,0-22.5,0-34.2c4.3,0.6,8.6,1.2,12.9,1.9c34.1,5.5,68.4,6.1,102.8,3.8c2.4-0.2,4.8-0.5,7.1-1.1
			c10.9-2.6,14.8-8.3,14.5-21c-0.3-9.9-5.2-16.1-15.5-17.2c-13.8-1.4-27.8-1.6-41.6-2.6c-14.3-1.1-28.7-1.4-42.7-4
			c-27.3-5-41.5-23.9-40.5-51.7c0.4-11.3,2.4-22.1,9.4-31.4c8.6-11.4,20.7-16.7,34.3-18.7c24.8-3.7,49.9-4.1,74.9-2.8
			c16.3,0.9,32.5,2.4,48.8,3.5c3,0.2,4.1,1.1,4.1,4.3c-0.2,10-0.1,20-0.1,30.5c-7.2-1.1-14-2.1-20.8-3.1
			c-31.8-4.4-63.7-5.4-95.7-2.1c-14.9,1.5-22.4,16.4-15,29.5c4,7.3,11.4,8.5,18.6,9c13.8,0.8,27.6,0.8,41.3,1.9
			c14.2,1.1,28.7,1.9,42.5,5c20,4.6,31.9,18.1,34.9,38.7c0.1,0.9,0.5,1.8,0.8,2.6C604.9,143.8,604.9,149.4,604.9,155.1z"/>
		<path d="M122.1,498.1c6.9-14.3,13.7-28.7,20.7-43c25.6-52.6,51.2-105.2,76.7-157.9c0.7-1.4,1.3-2.9,2.2-4.7c-35.5,0-70.6,0-106,0
			c-0.2-1.3-0.4-2.3-0.4-3.4c-0.1-10.2,0-20.4-0.2-30.5c0-2.7,0.6-3.8,3.5-3.8c47.4,0.1,94.8,0.1,142.2,0.1c0.8,0,1.6,0.1,2.9,0.3
			c0,3.7-0.3,7.3,0.1,10.8c2,18.2-3.3,34.2-11.6,50.4c-30.1,59-59.1,118.6-88.5,178c-0.6,1.2-1,2.4-1.4,3.7
			C148.9,498.1,135.5,498.1,122.1,498.1z"/>
		<path d="M307.7,498.1c0-8.8,0-17.6,0-26.6c52.6,0,104.8,0,157,0c0.1,0.3,0.3,0.5,0.4,0.8c-3.8,2.7-7.6,5.6-11.5,8.1
			c-15.8,9.9-33.2,15.1-51.6,16.9c-1.2,0.1-2.3,0.5-3.5,0.8C368.2,498.1,337.9,498.1,307.7,498.1z"/>
		<path d="M409.4,111.4c-0.8,12.9-0.8,27.8-2.9,42.2c-3.8,25.5-18.3,39.9-43.6,45.5c-21.7,4.8-43.8,4.4-65.9,4.3
			c-17-0.1-34-0.7-50.5-5c-25.6-6.7-39.5-23.6-41.6-50c-2.1-26.5-2.5-53,0.3-79.4c2.6-24.8,15.6-42.9,45.4-48.7
			c11.6-2.3,23.6-3.7,35.4-3.9c20.3-0.3,40.7,0.2,60.9,1.5c14.4,0.9,28.6,4.1,40.6,13.2c12.7,9.6,18.4,23.1,19.8,38.4
			C408.3,82.9,408.6,96.3,409.4,111.4z M242,107.1c0.5,13.1,0.9,23.8,1.5,34.5c0.8,14.6,7.7,23,22,26.2c7,1.5,14.2,2.3,21.4,2.8
			c18.8,1.2,37.7,1.2,56.4-1.9c16.3-2.7,25-11.4,25.4-27c0.5-21.2,0.4-42.5,0-63.7c-0.2-10.5-4.3-19.4-14.7-23.7
			c-3.9-1.6-8.1-2.9-12.2-3.6c-19.8-3.1-39.7-3-59.6-1.4c-7.8,0.6-15.6,2.3-23,4.7c-8.9,2.9-14,9.9-14.8,19.2
			C243,85.2,242.6,97.4,242,107.1z"/>
		<path d="M185.3,165.7c0,10.9,0,21.5,0,32.8c-5,0.5-10.2,1.1-15.3,1.4c-31.7,1.8-63.4,3.1-95.1,0.9c-13-0.9-25.8-2.9-37.7-8.7
			c-17.9-8.8-26.4-24.1-28.3-43.2c-2.6-25.5-2.3-51-0.2-76.6c2.2-26.1,16.9-43.8,42.7-49.4c12.2-2.6,24.8-4.1,37.3-4.6
			c32.1-1.3,64.2,0.2,96.5,2.9c0,10.9,0,21.7,0,32.9c-5-0.3-9.9-0.6-14.8-1c-26.7-2.1-53.4-3.6-80.2-2.2c-8.1,0.4-16.2,1.6-24.2,3.2
			C56,56,49.5,62.5,47.9,72.9c-1,6.4-1.3,12.9-1.9,19.9c45.8,0,90.7,0,136,0c0,10.9,0,21.4,0,32.3c-44.9,0-89.9,0-135.4,0
			c-0.3,9.8-0.5,19.1,3.2,28c3.5,8.2,10.6,11.7,18.8,13.3c19.9,3.8,39.9,3.7,60,2.7c18.2-0.8,36.3-2.3,54.5-3.4
			C183.8,165.6,184.4,165.7,185.3,165.7z"/>
		<path d="M466.9,281.8c-52.9,0-105.8,0-158.9,0c0-8.8,0-17.5,0-26.6c1.3-0.1,2.7-0.2,4.1-0.2c26.5,0,53,0,79.5,0
			c20.5,0,40.2,3.4,58.2,13.6c6.2,3.5,11.9,8,17.8,12C467.3,281,467.1,281.4,466.9,281.8z"/>
		<path d="M392.5,298.2c28,0,54.8,0.2,81.7-0.2c6.1-0.1,9.7,1.5,12,7.1c2.7,6.6,5.9,13,9.2,20.1c-9.4,0-17.7,0-25.9,0
			c-11.6,0-23.3,0.1-34.9-0.1c-1.5,0-3.5-0.8-4.3-1.9c-8.2-12.9-19.7-20.8-34.7-23.9C394.9,299.3,394.2,298.9,392.5,298.2z"/>
		<path d="M495.4,429.2c-4.3,7.9-8.6,15.9-13,23.7c-0.5,0.9-2.1,1.8-3.2,1.8c-27.5,0.1-55.1,0.1-82.7-0.2
			c8.2-2.2,16.1-5.1,22.4-10.9c4.3-4,7.7-8.8,11.7-13.1c0.9-1,2.2-2.2,3.2-2.2c20.2-0.1,40.4-0.1,60.6-0.1
			C494.7,428.5,495,428.8,495.4,429.2z"/>
		<path d="M438.7,341.6c20,0,40,0,60.9,0c1,8.7,2,17.5,3.1,26.6c-1.9,0.1-3.1,0.3-4.3,0.3c-17.4,0-34.7-0.1-52.1,0.1
			c-3.1,0-4.1-1-4.4-4C441.1,357,439.8,349.6,438.7,341.6z"/>
		<path d="M439.1,411.6c1.3-9.1,2.6-17.7,3.9-26.5c19.6,0,39.4,0,60,0c-1.1,8.3-2.1,16.3-3.3,24.3c-0.1,0.8-1.4,2.1-2.1,2.1
			C478.1,411.7,458.6,411.6,439.1,411.6z"/>
		<path d="M308,341.6c19,0,37.6,0,56.5,0c0,8.8,0,17.5,0,26.6c-18.7,0-37.4,0-56.5,0C308,359.4,308,350.7,308,341.6z"/>
		<path d="M308,298.4c19,0,37.7,0,56.6,0c0,8.9,0,17.5,0,26.5c-18.8,0-37.5,0-56.6,0C308,316.2,308,307.5,308,298.4z"/>
		<path d="M364.6,385.1c0,8.8,0,17.3,0,26.2c-18.9,0-37.7,0-56.7,0c0-8.7,0-17.3,0-26.2C326.7,385.1,345.5,385.1,364.6,385.1z"/>
		<path d="M307.9,454.6c0-9,0-17.5,0-26.2c18.9,0,37.7,0,56.7,0c0,8.8,0,17.4,0,26.2C345.6,454.6,326.9,454.6,307.9,454.6z"/>
	</g>
</g>
</svg>
