<?xml version="1.0" encoding="utf-8"?>
<!-- Generator: Adobe Illustrator 22.0.1, SVG Export Plug-In . SVG Version: 6.00 Build 0)  -->
<svg version="1.1" height="20px" width="20px"
	 id="Layer_1" xmlns:cc="http://creativecommons.org/ns#" xmlns:dc="http://purl.org/dc/elements/1.1/" xmlns:inkscape="http://www.inkscape.org/namespaces/inkscape" xmlns:rdf="http://www.w3.org/1999/02/22-rdf-syntax-ns#" xmlns:sodipodi="http://sodipodi.sourceforge.net/DTD/sodipodi-0.dtd" xmlns:svg="http://www.w3.org/2000/svg"
	 xmlns="http://www.w3.org/2000/svg" xmlns:xlink="http://www.w3.org/1999/xlink" x="0px" y="0px" viewBox="0 0 100 61.1"
	 style="enable-background:new 0 0 100 61.1;" xml:space="preserve">
<g transform="translate(0,-952.36218)">
	<path d="M67.9,958.6c-1.1,0-2,1-1.9,2.1c0,0.5,0.3,1.1,0.7,1.4l20.2,18.5H8H7.8c-1,0-2,1-1.9,2.1c0,1,1,2,2.1,1.9h78.8l-20.2,18.5
		c-0.8,0.7-0.9,2-0.2,2.8c0.7,0.8,2,0.9,2.8,0.2c0,0,0,0,0,0l24-22c0.8-0.7,0.9-2,0.1-2.8c0-0.1-0.1-0.1-0.1-0.1l-24-22
		C69,958.7,68.4,958.5,67.9,958.6z"/>
</g>
</svg>
