<?xml version="1.0" encoding="utf-8"?>
<!-- Generator: Adobe Illustrator 22.0.1, SVG Export Plug-In . SVG Version: 6.00 Build 0)  -->
<svg version="1.1" id="Layer_1" xmlns="http://www.w3.org/2000/svg" xmlns:xlink="http://www.w3.org/1999/xlink" x="0px" y="0px"
	 viewBox="0 0 202.7 41.4" style="enable-background:new 0 0 202.7 41.4;" xml:space="preserve">
<style type="text/css">
	.st0{fill:#5F8BF2;}
</style>
<g>
	<path class="st0" d="M27,17.9c1,1.2,1.5,2.8,1.5,4.8c0,1-0.1,2-0.4,3c-0.7,2.9-2,5.1-3.7,6.6c-1.8,1.5-3.8,2.2-6.1,2.2
		c-1.3,0-2.4-0.2-3.3-0.7c-0.9-0.4-1.7-1.1-2.3-1.9L11.5,33c-0.5,0.4-0.9,0.7-1.4,0.9c-0.5,0.2-1,0.3-1.6,0.3H7.1
		c-0.6,0-1-0.1-1.3-0.4c-0.3-0.2-0.5-0.6-0.5-1c0-0.2,0-0.4,0.1-0.7l5.7-18.5c0.1-0.2,0.1-0.4,0.1-0.5c0-0.4-0.2-0.7-0.7-1.1
		c-0.2-0.2-0.4-0.4-0.5-0.5c-0.1-0.1-0.1-0.3,0-0.5c0.2-0.5,0.9-1,2.2-1.4c1.3-0.4,2.6-0.6,4-0.6c1.3,0,2.3,0.3,2.9,0.8
		c0.6,0.5,0.9,1.2,0.9,2.1c0,0.5-0.1,1-0.2,1.4L18.3,18c1.3-1.2,2.9-1.9,4.7-1.9C24.7,16.1,26,16.7,27,17.9z M19.8,23.1
		c0,0,0-0.5,0-1.4c0-1-0.3-1.6-0.9-1.6c-0.5,0-1.1,0.3-1.5,0.8l-2.2,7.2L15,28.8c-0.1,0.3-0.2,0.7-0.2,1.1c0,0.8,0.4,1.2,1.1,1.2
		c0.5,0,1.1-0.4,1.6-1.2c0.5-0.8,1.1-2.3,1.7-4.5C19.6,23.9,19.8,23.1,19.8,23.1z"/>
	<path class="st0" d="M48.6,18.1c1.5,1.2,2.2,2.9,2.2,4.9c0,0.7-0.1,1.4-0.3,2.3c-0.4,1.9-1.2,3.5-2.4,4.9c-1.2,1.4-2.6,2.5-4.3,3.2
		c-1.7,0.8-3.6,1.1-5.6,1.1c-3.1,0-5.5-0.6-7-1.9c-1.5-1.3-2.3-2.9-2.3-5c0-0.7,0.1-1.5,0.3-2.3c0.4-1.8,1.3-3.3,2.5-4.7
		c1.2-1.4,2.7-2.4,4.5-3.2c1.8-0.8,3.6-1.1,5.6-1.1C44.9,16.2,47.2,16.8,48.6,18.1z M40.2,20.5c-0.5,0.8-1.2,2.5-1.9,4.8
		c-0.7,2.4-1.1,4-1.1,5c0,0.5,0.1,0.8,0.2,1c0.2,0.2,0.4,0.3,0.6,0.3c0.5,0,1-0.4,1.5-1.2c0.5-0.9,1.1-2.5,1.9-5
		c0.7-2.2,1.1-3.8,1.1-4.8c0-0.5-0.1-0.8-0.2-1c-0.1-0.2-0.4-0.3-0.6-0.3C41.2,19.2,40.7,19.7,40.2,20.5z"/>
	<path class="st0" d="M70.9,18.1c1.5,1.2,2.2,2.9,2.2,4.9c0,0.7-0.1,1.4-0.3,2.3c-0.4,1.9-1.2,3.5-2.4,4.9c-1.2,1.4-2.6,2.5-4.3,3.2
		c-1.7,0.8-3.6,1.1-5.6,1.1c-3.1,0-5.5-0.6-7-1.9c-1.5-1.3-2.3-2.9-2.3-5c0-0.7,0.1-1.5,0.3-2.3c0.4-1.8,1.3-3.3,2.5-4.7
		c1.2-1.4,2.7-2.4,4.5-3.2c1.8-0.8,3.6-1.1,5.6-1.1C67.2,16.2,69.4,16.8,70.9,18.1z M62.5,20.5c-0.5,0.8-1.2,2.5-1.9,4.8
		c-0.7,2.4-1.1,4-1.1,5c0,0.5,0.1,0.8,0.2,1c0.2,0.2,0.4,0.3,0.6,0.3c0.5,0,1-0.4,1.5-1.2c0.5-0.9,1.1-2.5,1.9-5
		c0.7-2.2,1.1-3.8,1.1-4.8c0-0.5-0.1-0.8-0.2-1c-0.1-0.2-0.4-0.3-0.6-0.3C63.5,19.2,63,19.7,62.5,20.5z"/>
	<path class="st0" d="M95.8,17.3c0.8,0.7,1.2,1.6,1.2,2.6c0,1.1-0.3,1.9-1,2.5c-0.7,0.6-1.5,0.9-2.6,0.9c-1,0-1.7-0.2-2.2-0.7
		c-0.5-0.5-0.8-1-0.7-1.6c-0.2,0-0.4,0-0.6,0.3c-0.2,0.2-0.3,0.7-0.5,1.3c-0.1,0.4-0.3,0.8-0.6,1.2c1.5,0.1,2.7,0.5,3.4,1.1
		c0.7,0.6,1.1,1.3,1.1,2.3c0,0.5-0.1,0.9-0.2,1.4l-0.3,1.1c0,0.1-0.1,0.3-0.1,0.4c0,0.3,0.1,0.5,0.4,0.5c0.3,0,0.5-0.1,0.7-0.4
		c0.2-0.2,0.3-0.4,0.4-0.4c0.1,0,0.2,0.1,0.3,0.2c0.1,0.1,0.1,0.3,0.1,0.5c0,0.7-0.2,1.3-0.6,1.9c-0.4,0.6-1.1,1.1-1.9,1.5
		c-0.8,0.4-1.9,0.6-3.1,0.6c-1.5,0-2.7-0.4-3.6-1.1c-1-0.7-1.4-1.7-1.4-2.9c0-0.4,0.1-0.9,0.3-1.5l0.6-1.7c0.1-0.4,0.2-0.7,0.2-0.9
		c0-0.3-0.1-0.5-0.3-0.6s-0.5-0.2-0.9-0.2h-0.7l-1.5,5c-0.1,0.3-0.1,0.5-0.1,0.7c0,0.3,0.1,0.5,0.2,0.7c0.1,0.2,0.3,0.3,0.5,0.5
		c0.2,0.2,0.3,0.3,0.3,0.4s0.1,0.2,0,0.4c-0.1,0.3-0.3,0.5-0.7,0.6s-0.9,0.2-1.6,0.2h-7.7c-0.6,0-1-0.1-1.3-0.3
		c-0.3-0.2-0.4-0.4-0.3-0.8c0.1-0.3,0.3-0.5,0.7-0.7c0.3-0.2,0.6-0.4,0.8-0.6c0.2-0.2,0.4-0.6,0.6-1.2l5.2-17
		c0.1-0.2,0.1-0.4,0.1-0.5c0-0.2-0.1-0.5-0.2-0.6c-0.1-0.2-0.3-0.3-0.5-0.5c-0.2-0.2-0.4-0.3-0.5-0.5c-0.1-0.1-0.1-0.3-0.1-0.5
		c0.1-0.5,0.8-1,2.1-1.4c1.3-0.4,2.6-0.6,4-0.6c1.3,0,2.3,0.2,2.9,0.7c0.6,0.5,0.9,1.2,0.9,2c0,0.5-0.1,1-0.2,1.5L84,23h1.1
		c0.5,0,0.8-0.1,1.1-0.4c0.3-0.3,0.5-0.7,0.7-1.2c0.6-1.7,1.3-3,2.2-3.8c0.9-0.9,2.1-1.3,3.6-1.3C94,16.2,95,16.6,95.8,17.3z"/>
	<path class="st0" d="M128.6,29.5c0,0.1-0.1,0.2-0.1,0.4c0,0.2,0,0.3,0.1,0.4c0.1,0.1,0.2,0.1,0.3,0.1c0.3,0,0.5-0.1,0.7-0.4
		c0.2-0.2,0.3-0.4,0.4-0.4c0.1,0,0.2,0.1,0.3,0.2c0.1,0.1,0.1,0.3,0.1,0.5c0,0.7-0.2,1.3-0.6,1.9c-0.5,0.6-1.1,1.1-2,1.5
		c-0.9,0.4-1.9,0.6-3.1,0.6c-1.5,0-2.7-0.3-3.6-1c-0.9-0.7-1.3-1.6-1.4-2.8c0-0.8,0.2-1.8,0.6-2.8l1.9-4.9c0.1-0.3,0.2-0.5,0.2-0.7
		c0-0.3-0.1-0.5-0.3-0.7c-0.2-0.2-0.4-0.3-0.7-0.3c-0.4,0-0.8,0.2-1.2,0.5c-0.4,0.3-0.8,0.9-1.1,1.6l-1.9,6.1c0,0.1-0.1,0.2-0.1,0.4
		c0,0.2,0,0.3,0.1,0.4c0.1,0.1,0.2,0.1,0.3,0.1c0.3,0,0.5-0.1,0.7-0.4c0.2-0.2,0.3-0.4,0.4-0.4c0.1,0,0.2,0.1,0.3,0.2
		c0.1,0.1,0.1,0.3,0.1,0.5c0,0.7-0.2,1.3-0.6,1.9c-0.5,0.6-1.1,1.1-2,1.5c-0.9,0.4-1.9,0.6-3.1,0.6c-1.5,0-2.7-0.3-3.6-1
		c-0.9-0.7-1.3-1.6-1.4-2.8c0-0.8,0.2-1.8,0.6-2.8l1.9-4.9c0.1-0.3,0.2-0.5,0.2-0.7c0-0.3-0.1-0.5-0.3-0.7c-0.2-0.2-0.4-0.3-0.7-0.3
		c-0.4,0-0.8,0.2-1.2,0.5c-0.4,0.3-0.7,0.9-1,1.6l-2.2,7.3c-0.1,0.2-0.1,0.5-0.1,0.7c0,0.3,0.1,0.5,0.2,0.7c0.1,0.2,0.3,0.3,0.5,0.5
		c0.2,0.1,0.3,0.3,0.3,0.4s0.1,0.2,0,0.4c-0.1,0.3-0.3,0.5-0.6,0.6s-0.9,0.2-1.6,0.2h-7.7c-0.6,0-1-0.1-1.3-0.3
		c-0.3-0.2-0.4-0.4-0.3-0.8c0.1-0.3,0.3-0.5,0.7-0.7c0.3-0.2,0.6-0.4,0.8-0.6c0.2-0.2,0.4-0.6,0.6-1.2l3-9.8c0-0.1,0.1-0.3,0.1-0.5
		c0-0.2-0.1-0.4-0.2-0.6c-0.1-0.1-0.3-0.3-0.5-0.5c-0.2-0.2-0.4-0.3-0.5-0.5c-0.1-0.1-0.1-0.3,0-0.5c0.1-0.5,0.8-1,2.1-1.4
		c1.3-0.4,2.6-0.6,4-0.6c1.1,0,2,0.3,2.6,0.9c0.6,0.6,1,1.4,0.9,2.5c0.9-1.3,1.9-2.2,2.9-2.7c1-0.5,2.1-0.7,3.3-0.7
		c1.3,0,2.4,0.4,3.2,1.1c0.8,0.8,1.3,1.8,1.4,3c1-1.5,2-2.6,3.1-3.2c1.1-0.6,2.3-0.9,3.6-0.9c1.4,0,2.5,0.4,3.3,1.3
		c0.8,0.8,1.3,1.9,1.3,3.3c0,0.7-0.1,1.4-0.3,2.1L128.6,29.5z"/>
	<path class="st0" d="M150.3,17.7c1.6,1,2.3,2.4,2.3,4.4c0,0.7-0.1,1.6-0.4,2.5l-1.4,4.7c0,0.1,0,0.2,0,0.3c0,0.4,0.1,0.5,0.4,0.5
		c0.3,0,0.5-0.1,0.7-0.4c0.2-0.2,0.3-0.4,0.4-0.4c0.1,0,0.2,0.1,0.3,0.2c0.1,0.2,0.1,0.3,0.1,0.5c0,0.6-0.2,1.2-0.7,1.9
		c-0.5,0.6-1.1,1.2-2,1.6c-0.8,0.4-1.7,0.6-2.7,0.6c-1.2,0-2.2-0.2-3-0.6c-0.8-0.4-1.4-1.1-1.7-1.9c-0.7,0.8-1.5,1.4-2.4,1.9
		s-1.9,0.7-3,0.7c-1.2,0-2.2-0.2-3-0.7c-0.8-0.5-1.4-1.1-1.8-1.8c-0.4-0.7-0.6-1.5-0.6-2.3c0-0.4,0-0.7,0.1-1.1
		c0.4-1.6,1.1-2.7,2.4-3.5s2.7-1.2,4.3-1.2c1.9,0,3.7,0.3,5.5,0.9l0.8-2.2c0.3-1,0.4-1.7,0.4-2.2c0-0.5-0.2-1-0.5-1.2
		c-0.3-0.3-0.9-0.4-1.6-0.4c0.1,0.4,0.2,0.7,0.2,1.1c0,0.8-0.3,1.6-1,2.2c-0.6,0.6-1.5,0.9-2.7,0.9c-1.1,0-2-0.2-2.6-0.7
		c-0.6-0.5-0.9-1.1-0.9-1.8c0-1.1,0.6-2.1,1.9-2.8s3.2-1.1,5.8-1.1S148.7,16.7,150.3,17.7z M140.6,27.2c-0.4,0.5-0.6,1-0.6,1.6
		c0,0.4,0.1,0.7,0.3,0.9c0.2,0.2,0.4,0.3,0.7,0.3c0.3,0,0.6-0.1,1-0.4s0.6-0.6,0.8-1.1l0.7-2c-0.4-0.1-0.8-0.1-1.3-0.1
		C141.5,26.5,141,26.8,140.6,27.2z"/>
	<path class="st0" d="M173.9,17.4c0.8,0.8,1.1,1.7,1.1,2.9c0,0.4,0,0.8-0.1,1.2c-0.2,0.9-0.7,1.6-1.3,2.1c-0.6,0.5-1.4,0.7-2.3,0.7
		c-0.9,0-1.5-0.2-2-0.6c-0.4-0.4-0.8-1-1.2-1.6c-0.2-0.4-0.4-0.7-0.5-0.8c-0.2-0.2-0.3-0.3-0.5-0.3c-0.2,0-0.4,0.1-0.6,0.3
		c-0.2,0.2-0.3,0.5-0.5,1l-2.6,8.5c0,0.1-0.1,0.3-0.1,0.5c0,0.3,0.1,0.5,0.3,0.7c0.2,0.2,0.4,0.4,0.7,0.6c0.3,0.2,0.5,0.3,0.5,0.4
		c0.1,0.1,0.1,0.3,0.1,0.4c0,0.3-0.2,0.5-0.5,0.6s-0.8,0.2-1.4,0.2h-8.7c-0.6,0-1-0.1-1.3-0.3c-0.3-0.2-0.4-0.4-0.3-0.8
		c0.1-0.3,0.3-0.5,0.7-0.7c0.3-0.2,0.6-0.4,0.8-0.6c0.2-0.2,0.4-0.6,0.6-1.2l3-9.8c0-0.1,0.1-0.3,0.1-0.5c0-0.2-0.1-0.4-0.2-0.6
		c-0.1-0.1-0.3-0.3-0.5-0.5c-0.2-0.2-0.4-0.3-0.5-0.5c-0.1-0.1-0.1-0.3,0-0.5c0.1-0.5,0.8-1,2.1-1.4c1.3-0.4,2.6-0.6,4-0.6
		c0.9,0,1.7,0.2,2.3,0.6c0.6,0.4,1,1,1.2,1.8c1.1-1.6,2.5-2.4,4.3-2.4C172.1,16.2,173.1,16.6,173.9,17.4z"/>
	<path class="st0" d="M196.7,17.3c0.8,0.7,1.2,1.6,1.2,2.6c0,1.1-0.3,1.9-1,2.5c-0.7,0.6-1.5,0.9-2.6,0.9c-1,0-1.7-0.2-2.2-0.7
		c-0.5-0.5-0.8-1-0.7-1.6c-0.2,0-0.4,0-0.6,0.3c-0.2,0.2-0.3,0.7-0.5,1.3c-0.1,0.4-0.3,0.8-0.6,1.2c1.5,0.1,2.7,0.5,3.4,1.1
		c0.7,0.6,1.1,1.3,1.1,2.3c0,0.5-0.1,0.9-0.2,1.4l-0.3,1.1c0,0.1-0.1,0.3-0.1,0.4c0,0.3,0.1,0.5,0.4,0.5c0.3,0,0.5-0.1,0.7-0.4
		c0.2-0.2,0.3-0.4,0.4-0.4c0.1,0,0.2,0.1,0.3,0.2c0.1,0.1,0.1,0.3,0.1,0.5c0,0.7-0.2,1.3-0.6,1.9c-0.4,0.6-1.1,1.1-1.9,1.5
		c-0.8,0.4-1.9,0.6-3.1,0.6c-1.5,0-2.7-0.4-3.6-1.1s-1.4-1.7-1.4-2.9c0-0.4,0.1-0.9,0.3-1.5l0.6-1.7c0.1-0.4,0.2-0.7,0.2-0.9
		c0-0.3-0.1-0.5-0.3-0.6s-0.5-0.2-0.9-0.2h-0.7l-1.5,5c-0.1,0.3-0.1,0.5-0.1,0.7c0,0.3,0.1,0.5,0.2,0.7c0.1,0.2,0.3,0.3,0.5,0.5
		c0.2,0.2,0.3,0.3,0.3,0.4s0.1,0.2,0,0.4c-0.1,0.3-0.3,0.5-0.7,0.6s-0.9,0.2-1.6,0.2h-7.7c-0.6,0-1-0.1-1.3-0.3
		c-0.3-0.2-0.4-0.4-0.3-0.8c0.1-0.3,0.3-0.5,0.7-0.7c0.3-0.2,0.6-0.4,0.8-0.6c0.2-0.2,0.4-0.6,0.6-1.2l5.2-17
		c0.1-0.2,0.1-0.4,0.1-0.5c0-0.2-0.1-0.5-0.2-0.6c-0.1-0.2-0.3-0.3-0.5-0.5c-0.2-0.2-0.4-0.3-0.5-0.5c-0.1-0.1-0.1-0.3-0.1-0.5
		c0.1-0.5,0.8-1,2.1-1.4s2.6-0.6,4-0.6c1.3,0,2.3,0.2,2.9,0.7c0.6,0.5,0.9,1.2,0.9,2c0,0.5-0.1,1-0.2,1.5l-3,9.7h1.1
		c0.5,0,0.8-0.1,1.1-0.4c0.3-0.3,0.5-0.7,0.7-1.2c0.6-1.7,1.3-3,2.2-3.8c0.9-0.9,2.1-1.3,3.6-1.3C194.9,16.2,196,16.6,196.7,17.3z"
		/>
</g>
</svg>
