<?xml version="1.0" encoding="utf-8"?>
<!-- Generator: Adobe Illustrator 22.0.1, SVG Export Plug-In . SVG Version: 6.00 Build 0)  -->
<svg version="1.1" id="Layer_1" xmlns="http://www.w3.org/2000/svg" xmlns:xlink="http://www.w3.org/1999/xlink" x="0px" y="0px"
	 viewBox="0 0 543.9 526.8" style="enable-background:new 0 0 543.9 526.8;" xml:space="preserve">
<style type="text/css">
	.st0{fill:#FEFBFC;}
	.st1{fill:#EC225D;}
</style>
<path class="st0" d="M95.4,276.8c8.5-12.6,20.6-19.7,34.9-23.3c40-10.1,79.3,13.8,89.5,54.7c6.5,26.4,3.4,51.7-12,74.6
	c-19.5,28.9-58.5,39.4-89.6,24.7c-8.7-4.1-15.8-10.1-21.6-18.1c-1.2,2.2-0.7,4-0.7,5.7c0,28.7-0.1,57.3,0.1,86c0,4.1-1,5.4-5.2,5.3
	c-9.5-0.3-19-0.3-28.5,0c-4,0.1-5-1.1-5-5c0.1-36.7,0.1-73.3,0.1-110c0-36.7,0.1-73.3-0.1-110c0-4.6,1.2-6,5.8-5.8
	c8.6,0.4,17.3,0.4,26,0c4.3-0.2,5.4,1.3,5.1,5.4c-0.3,5.1-0.1,10.2-0.1,15.3C94.6,276.5,95,276.7,95.4,276.8z M94.7,332.4
	c0,7.6,1.5,15,4.5,21.8c8,18.3,24.6,28.5,44.5,27.4c17.7-1.1,31.9-13.3,37.6-32.2c2.7-8.9,3.2-17.9,1.8-27.1
	c-4.3-28.6-29.5-45.8-55.8-37.8C108.3,290.2,94.7,310.2,94.7,332.4z M240.2,375.5c-3,2.7-3.2,4.4-0.8,7.7
	c14.7,20,34.7,29.8,59.1,31.7c50.5,3.8,92.5-28.8,90.4-83.1c-1.1-29.1-14.8-49.9-41.8-61.4c-18.7-8-38.2-8.4-57.9-5
	c-3.9,0.7-4.8-0.1-4.6-4c0.8-13,1.4-26,1.7-38.9c0.1-4.1,1.4-5.2,5.5-5.1c27.7,0.2,55.3,0.1,83,0.2c3.1,0,4.4-0.6,4.3-4
	c-0.2-8.8-0.2-17.7,0-26.5c0.1-3.4-1.2-4.2-4.3-4.2c-40.2,0.1-80.3,0.1-120.5,0c-3.1,0-4.3,0.6-4.4,4.1c-1,39-2.3,78-3.4,116.9
	c0,0.8-0.3,1.7,0.9,2.3c0.9-0.4,1.9-0.9,3-1.3c17.5-7.1,35.5-11.5,54.5-10.4c35.1,2,49.4,26.6,43.6,55.9
	c-3.5,17.9-16.9,29.5-35.3,31.8c-19.4,2.5-37.5-7-46-24.1c-0.8-1.6-1-3.5-2.9-5C256.3,360.6,248.5,368.3,240.2,375.5z M463.5,188.7
	c0-7.2,0-7.2-7.1-7.2c-11.1,0-11.1,0-11.1,12.7c0,10.6,0,10.6-10,7.4c-12.9-4.2-12.7-4.1-16.8,8.9c-1,3.3,0.1,4,2.7,4.9
	c5,1.7,10,3.7,15.1,5.3c3.3,1,3.3,2.3,1.3,4.8c-3.3,4.2-6.3,8.6-9.5,12.8c-1.5,1.9-1.8,3.2,0.5,4.8c3,2,6,4.2,8.7,6.6
	c1.9,1.7,3,1.3,4.3-0.5c2.8-3.9,5.8-7.7,8.7-11.6c3.7-4.9,3.7-4.9,7.2-0.2c1.1,1.5,2.2,2.9,3.3,4.4c8.1,10.7,8,10.6,18.9,2.2
	c2.2-1.7,2.6-2.9,0.9-5.1c-3.5-4.6-6.7-9.5-10.1-14.2c-1.3-1.8-1.3-2.7,1.1-3.4c4.8-1.4,9.4-3.5,14.2-4.7c4.3-1.1,5.3-2.8,3.7-7.2
	c-4-11-3.7-11.1-15.1-7.7c-11,3.3-11,3.3-11-8.4C463.5,191.7,463.5,190.2,463.5,188.7z"/>
<path class="st1" d="M545.3,4.4c0-3.9-1-4.4-4.6-4.4C368.2,0.1,175.7,0.1,3.2,0c-3.6,0-4.5,0.5-4.5,4.4c0.1,172.8,0.1,345.5,0,518.3
	c0,3.7,0.9,4.1,4.3,4.1c86.4-0.1,182.7-0.1,269.1-0.1c86.4,0,182.7,0,269.1,0.1c3.4,0,4.3-0.5,4.3-4.1
	C545.2,349.9,545.2,177.1,545.3,4.4z M204.9,385.2c-20.1,29.7-60.2,40.5-92.1,25.4c-9-4.2-16.3-10.4-22.3-18.6
	c-1.2,2.2-0.7,4.1-0.7,5.9c0,29.5-0.1,59,0.1,88.4c0,4.2-1,5.6-5.4,5.4c-9.8-0.3-19.5-0.3-29.3,0c-4.1,0.1-5.1-1.2-5.1-5.2
	c0.1-37.7,0.1-75.4,0.1-113.1c0-37.7,0.1-75.4-0.1-113.1c0-4.7,1.2-6.2,6-6c8.9,0.4,17.8,0.4,26.7,0c4.5-0.2,5.6,1.4,5.3,5.5
	c-0.3,5.2-0.1,10.5-0.1,15.7c0.4,0.2,0.9,0.4,1.3,0.6c8.8-12.9,21.2-20.3,35.9-24c41.2-10.4,81.6,14.1,92.1,56.3
	C224,335.6,220.8,361.7,204.9,385.2z M298.3,418.1c-25.1-1.9-45.7-11.9-60.8-32.6c-2.4-3.3-2.3-5.2,0.8-7.9
	c8.4-7.5,16.5-15.3,24.8-23c1.9,1.5,2.1,3.5,3,5.1c8.8,17.6,27.3,27.3,47.3,24.8c18.9-2.4,32.7-14.3,36.3-32.7
	c5.9-30.1-8.7-55.5-44.9-57.5c-19.5-1.1-38.1,3.5-56,10.7c-1.1,0.4-2.1,0.9-3.1,1.3c-1.2-0.7-1-1.6-0.9-2.4
	c1.2-40.1,2.5-80.2,3.5-120.3c0.1-3.6,1.4-4.2,4.6-4.2c41.3,0.1,82.6,0.1,123.9,0c3.2,0,4.5,0.7,4.4,4.3c-0.3,9.1-0.3,18.2,0,27.2
	c0.1,3.6-1.2,4.2-4.4,4.2c-28.5-0.1-56.9,0-85.4-0.2c-4.2,0-5.5,1-5.6,5.3c-0.3,13.4-0.9,26.7-1.8,40.1c-0.2,4.1,0.7,4.8,4.7,4.1
	c20.3-3.5,40.4-3.1,59.6,5.1c27.7,11.8,41.8,33.2,43,63.2C393.5,388.6,350.2,422.1,298.3,418.1z M491,214c-4.9,1.3-9.7,3.4-14.6,4.8
	c-2.5,0.7-2.5,1.7-1.2,3.5c3.5,4.9,6.8,9.9,10.4,14.6c1.8,2.3,1.3,3.6-0.9,5.3c-11.2,8.6-11.1,8.7-19.5-2.3c-1.1-1.5-2.3-3-3.4-4.5
	c-3.6-4.8-3.6-4.8-7.4,0.2c-3,4-6,7.9-8.9,11.9c-1.4,1.9-2.5,2.3-4.4,0.6c-2.8-2.5-5.8-4.8-9-6.8c-2.4-1.6-2-2.9-0.5-4.9
	c3.3-4.3,6.4-8.9,9.8-13.2c2-2.5,2-3.9-1.4-4.9c-5.2-1.6-10.3-3.7-15.5-5.4c-2.6-0.9-3.8-1.7-2.8-5c4.2-13.4,4.1-13.5,17.3-9.2
	c10.2,3.3,10.2,3.3,10.2-7.6c0-13,0-13,11.4-13c7.3,0,7.3,0,7.3,7.4c0,1.5,0,3.1,0,4.6c0,12,0,12,11.3,8.6
	c11.7-3.5,11.4-3.4,15.5,7.9C496.5,211.2,495.5,212.9,491,214z M88.6,333.3c0.1-22.8,14.1-43.3,33.5-49.3c27-8.2,52.9,9.4,57.4,38.8
	c1.4,9.5,0.8,18.8-1.9,27.9c-5.8,19.5-20.5,32-38.7,33.1c-20.5,1.2-37.5-9.3-45.7-28.1C90.1,348.8,88.5,341.1,88.6,333.3z"/>
</svg>
